# Blender v2.90.0 OBJ File: '3DSupportLight.blend'
# www.blender.org
mtllib 3DSupportLightBase.mtl
o Cylinder
v 0.000000 -0.146887 -1.000000
v 0.000000 0.146887 -1.000000
v 0.195090 -0.146887 -0.980785
v 0.195090 0.146887 -0.980785
v 0.382683 -0.146887 -0.923880
v 0.382683 0.146887 -0.923880
v 0.555570 -0.146887 -0.831470
v 0.555570 0.146887 -0.831470
v 0.707107 -0.146887 -0.707107
v 0.707107 0.146887 -0.707107
v 0.831470 -0.146887 -0.555570
v 0.831470 0.146887 -0.555570
v 0.923880 -0.146887 -0.382683
v 0.923880 0.146887 -0.382683
v 0.980785 -0.146887 -0.195090
v 0.980785 0.146887 -0.195090
v 1.000000 -0.146887 -0.000000
v 1.000000 0.146887 -0.000000
v 0.980785 -0.146887 0.195090
v 0.980785 0.146887 0.195090
v 0.923880 -0.146887 0.382683
v 0.923880 0.146887 0.382683
v 0.831470 -0.146887 0.555570
v 0.831470 0.146887 0.555570
v 0.707107 -0.146887 0.707107
v 0.707107 0.146887 0.707107
v 0.555570 -0.146887 0.831470
v 0.555570 0.146887 0.831470
v 0.382683 -0.146887 0.923880
v 0.382683 0.146887 0.923880
v 0.195090 -0.146887 0.980785
v 0.195090 0.146887 0.980785
v -0.000000 -0.146887 1.000000
v -0.000000 0.146887 1.000000
v -0.195091 -0.146887 0.980785
v -0.195091 0.146887 0.980785
v -0.382684 -0.146887 0.923879
v -0.382684 0.146887 0.923879
v -0.555571 -0.146887 0.831469
v -0.555571 0.146887 0.831469
v -0.707107 -0.146887 0.707106
v -0.707107 0.146887 0.707106
v -0.831470 -0.146887 0.555570
v -0.831470 0.146887 0.555570
v -0.923880 -0.146887 0.382683
v -0.923880 0.146887 0.382683
v -0.980785 -0.146887 0.195089
v -0.980785 0.146887 0.195089
v -1.000000 -0.146887 -0.000001
v -1.000000 0.146887 -0.000001
v -0.980785 -0.146887 -0.195091
v -0.980785 0.146887 -0.195091
v -0.923879 -0.146887 -0.382684
v -0.923879 0.146887 -0.382684
v -0.831469 -0.146887 -0.555571
v -0.831469 0.146887 -0.555571
v -0.707106 -0.146887 -0.707108
v -0.707106 0.146887 -0.707108
v -0.555569 -0.146887 -0.831470
v -0.555569 0.146887 -0.831470
v -0.382682 -0.146887 -0.923880
v -0.382682 0.146887 -0.923880
v -0.195089 -0.146887 -0.980786
v -0.195089 0.146887 -0.980786
vt 0.498473 0.948179
vt 0.498473 0.966183
vt 0.497348 0.966183
vt 0.497348 0.948179
vt 0.496222 0.966183
vt 0.496222 0.948179
vt 0.495097 0.966183
vt 0.495097 0.948179
vt 0.493972 0.966183
vt 0.493972 0.948179
vt 0.492846 0.966183
vt 0.492846 0.948179
vt 0.491721 0.966183
vt 0.491721 0.948179
vt 0.490596 0.966183
vt 0.490596 0.948179
vt 0.489471 0.966183
vt 0.489471 0.948179
vt 0.488345 0.966183
vt 0.488345 0.948179
vt 0.487220 0.966183
vt 0.487220 0.948179
vt 0.486095 0.966183
vt 0.486095 0.948179
vt 0.484970 0.966183
vt 0.484970 0.948179
vt 0.483844 0.966183
vt 0.483844 0.948179
vt 0.482719 0.966183
vt 0.482719 0.948179
vt 0.481594 0.966183
vt 0.481594 0.948179
vt 0.480469 0.966183
vt 0.480469 0.948179
vt 0.479344 0.966183
vt 0.479344 0.948179
vt 0.478218 0.966183
vt 0.478218 0.948179
vt 0.477093 0.966183
vt 0.477093 0.948179
vt 0.475968 0.966183
vt 0.475968 0.948179
vt 0.474843 0.966183
vt 0.474843 0.948179
vt 0.473717 0.966183
vt 0.473717 0.948179
vt 0.472592 0.966183
vt 0.472592 0.948179
vt 0.471467 0.966183
vt 0.471467 0.948179
vt 0.470342 0.966183
vt 0.470342 0.948179
vt 0.469216 0.966183
vt 0.469216 0.948179
vt 0.468091 0.966183
vt 0.468091 0.948179
vt 0.466966 0.966183
vt 0.466966 0.948179
vt 0.465841 0.966183
vt 0.465841 0.948179
vt 0.464715 0.966183
vt 0.464715 0.948179
vt 0.473153 0.947653
vt 0.471467 0.947819
vt 0.469781 0.947653
vt 0.468160 0.947161
vt 0.466666 0.946363
vt 0.465356 0.945288
vt 0.464281 0.943978
vt 0.463483 0.942484
vt 0.462991 0.940863
vt 0.462825 0.939177
vt 0.462991 0.937491
vt 0.463483 0.935870
vt 0.464281 0.934376
vt 0.465356 0.933067
vt 0.466666 0.931992
vt 0.468160 0.931193
vt 0.469781 0.930701
vt 0.471467 0.930535
vt 0.473153 0.930701
vt 0.474774 0.931193
vt 0.476268 0.931992
vt 0.477578 0.933066
vt 0.478652 0.934376
vt 0.479451 0.935870
vt 0.479943 0.937491
vt 0.480109 0.939177
vt 0.479943 0.940863
vt 0.479451 0.942484
vt 0.478652 0.943978
vt 0.477578 0.945288
vt 0.476268 0.946363
vt 0.474774 0.947161
vt 0.463590 0.966183
vt 0.463590 0.948179
vt 0.462465 0.966183
vt 0.462465 0.948179
vt 0.489471 0.947819
vt 0.491157 0.947653
vt 0.492778 0.947161
vt 0.494272 0.946363
vt 0.495582 0.945288
vt 0.496656 0.943978
vt 0.497455 0.942484
vt 0.497947 0.940863
vt 0.498113 0.939177
vt 0.497947 0.937491
vt 0.497455 0.935870
vt 0.496656 0.934376
vt 0.495582 0.933066
vt 0.494272 0.931992
vt 0.492778 0.931193
vt 0.491157 0.930701
vt 0.489471 0.930535
vt 0.487785 0.930701
vt 0.486164 0.931193
vt 0.484670 0.931992
vt 0.483360 0.933067
vt 0.482285 0.934376
vt 0.481487 0.935870
vt 0.480995 0.937491
vt 0.480829 0.939177
vt 0.480995 0.940863
vt 0.481487 0.942484
vt 0.482285 0.943978
vt 0.483360 0.945288
vt 0.484670 0.946363
vt 0.486164 0.947161
vt 0.487785 0.947653
vn 0.0980 0.0000 -0.9952
vn 0.2903 0.0000 -0.9569
vn 0.4714 0.0000 -0.8819
vn 0.6344 0.0000 -0.7730
vn 0.7730 0.0000 -0.6344
vn 0.8819 0.0000 -0.4714
vn 0.9569 0.0000 -0.2903
vn 0.9952 0.0000 -0.0980
vn 0.9952 0.0000 0.0980
vn 0.9569 0.0000 0.2903
vn 0.8819 0.0000 0.4714
vn 0.7730 0.0000 0.6344
vn 0.6344 0.0000 0.7730
vn 0.4714 0.0000 0.8819
vn 0.2903 0.0000 0.9569
vn 0.0980 0.0000 0.9952
vn -0.0980 0.0000 0.9952
vn -0.2903 0.0000 0.9569
vn -0.4714 0.0000 0.8819
vn -0.6344 0.0000 0.7730
vn -0.7730 0.0000 0.6344
vn -0.8819 0.0000 0.4714
vn -0.9569 0.0000 0.2903
vn -0.9952 0.0000 0.0980
vn -0.9952 0.0000 -0.0980
vn -0.9569 0.0000 -0.2903
vn -0.8819 0.0000 -0.4714
vn -0.7730 0.0000 -0.6344
vn -0.6344 0.0000 -0.7730
vn -0.4714 0.0000 -0.8819
vn 0.0000 1.0000 0.0000
vn -0.2903 0.0000 -0.9569
vn -0.0980 0.0000 -0.9952
vn 0.0000 -1.0000 0.0000
usemtl None
s off
f 1/1/1 2/2/1 4/3/1 3/4/1
f 3/4/2 4/3/2 6/5/2 5/6/2
f 5/6/3 6/5/3 8/7/3 7/8/3
f 7/8/4 8/7/4 10/9/4 9/10/4
f 9/10/5 10/9/5 12/11/5 11/12/5
f 11/12/6 12/11/6 14/13/6 13/14/6
f 13/14/7 14/13/7 16/15/7 15/16/7
f 15/16/8 16/15/8 18/17/8 17/18/8
f 17/18/9 18/17/9 20/19/9 19/20/9
f 19/20/10 20/19/10 22/21/10 21/22/10
f 21/22/11 22/21/11 24/23/11 23/24/11
f 23/24/12 24/23/12 26/25/12 25/26/12
f 25/26/13 26/25/13 28/27/13 27/28/13
f 27/28/14 28/27/14 30/29/14 29/30/14
f 29/30/15 30/29/15 32/31/15 31/32/15
f 31/32/16 32/31/16 34/33/16 33/34/16
f 33/34/17 34/33/17 36/35/17 35/36/17
f 35/36/18 36/35/18 38/37/18 37/38/18
f 37/38/19 38/37/19 40/39/19 39/40/19
f 39/40/20 40/39/20 42/41/20 41/42/20
f 41/42/21 42/41/21 44/43/21 43/44/21
f 43/44/22 44/43/22 46/45/22 45/46/22
f 45/46/23 46/45/23 48/47/23 47/48/23
f 47/48/24 48/47/24 50/49/24 49/50/24
f 49/50/25 50/49/25 52/51/25 51/52/25
f 51/52/26 52/51/26 54/53/26 53/54/26
f 53/54/27 54/53/27 56/55/27 55/56/27
f 55/56/28 56/55/28 58/57/28 57/58/28
f 57/58/29 58/57/29 60/59/29 59/60/29
f 59/60/30 60/59/30 62/61/30 61/62/30
f 4/63/31 2/64/31 64/65/31 62/66/31 60/67/31 58/68/31 56/69/31 54/70/31 52/71/31 50/72/31 48/73/31 46/74/31 44/75/31 42/76/31 40/77/31 38/78/31 36/79/31 34/80/31 32/81/31 30/82/31 28/83/31 26/84/31 24/85/31 22/86/31 20/87/31 18/88/31 16/89/31 14/90/31 12/91/31 10/92/31 8/93/31 6/94/31
f 61/62/32 62/61/32 64/95/32 63/96/32
f 63/96/33 64/95/33 2/97/33 1/98/33
f 1/99/34 3/100/34 5/101/34 7/102/34 9/103/34 11/104/34 13/105/34 15/106/34 17/107/34 19/108/34 21/109/34 23/110/34 25/111/34 27/112/34 29/113/34 31/114/34 33/115/34 35/116/34 37/117/34 39/118/34 41/119/34 43/120/34 45/121/34 47/122/34 49/123/34 51/124/34 53/125/34 55/126/34 57/127/34 59/128/34 61/129/34 63/130/34
