# Blender v2.90.0 OBJ File: '3DLever.blend'
# www.blender.org
mtllib LeverHandle1.1.mtl
o LeverHandle_Cylinder.002
v -0.508819 2.071669 -0.182549
v 0.508819 2.071669 -0.182549
v -0.508819 2.036056 -0.179041
v 0.508819 2.036056 -0.179041
v -0.508819 2.001811 -0.168653
v 0.508819 2.001811 -0.168653
v -0.508819 1.970250 -0.151784
v 0.508819 1.970250 -0.151784
v -0.508819 1.942587 -0.129082
v 0.508819 1.942588 -0.129082
v -0.508819 1.919885 -0.101419
v 0.508819 1.919885 -0.101419
v -0.508819 1.903016 -0.069858
v 0.508819 1.903016 -0.069858
v -0.508819 1.892628 -0.035614
v 0.508819 1.892628 -0.035614
v -0.508819 1.889120 -0.000000
v 0.508819 1.889120 -0.000000
v -0.508819 1.892628 0.035613
v 0.508819 1.892628 0.035613
v -0.508819 1.903016 0.069858
v 0.508819 1.903016 0.069858
v -0.508819 1.919885 0.101419
v 0.508819 1.919885 0.101419
v -0.508819 1.942587 0.129082
v 0.508819 1.942588 0.129082
v -0.508819 1.970250 0.151784
v 0.508819 1.970250 0.151784
v -0.508819 2.001811 0.168653
v 0.508819 2.001811 0.168653
v -0.508819 2.036056 0.179041
v 0.508819 2.036056 0.179041
v -0.508819 2.071669 0.182549
v 0.508819 2.071669 0.182549
v -0.508819 2.107283 0.179041
v 0.508819 2.107283 0.179041
v -0.508819 2.141528 0.168653
v 0.508819 2.141528 0.168653
v -0.508819 2.173088 0.151784
v 0.508819 2.173088 0.151784
v -0.508819 2.200751 0.129081
v 0.508819 2.200751 0.129081
v -0.508819 2.223453 0.101419
v 0.508819 2.223453 0.101419
v -0.508819 2.240322 0.069858
v 0.508819 2.240322 0.069858
v -0.508819 2.250710 0.035613
v 0.508819 2.250710 0.035613
v -0.508819 2.254218 -0.000000
v 0.508819 2.254218 -0.000000
v -0.508819 2.250710 -0.035614
v 0.508819 2.250710 -0.035614
v -0.508819 2.240322 -0.069859
v 0.508819 2.240322 -0.069859
v -0.508819 2.223453 -0.101419
v 0.508819 2.223453 -0.101419
v -0.508819 2.200750 -0.129082
v 0.508819 2.200751 -0.129082
v -0.508819 2.173088 -0.151784
v 0.508819 2.173088 -0.151784
v -0.508819 2.141527 -0.168653
v 0.508819 2.141527 -0.168653
v -0.508819 2.107282 -0.179041
v 0.508819 2.107282 -0.179041
vt 0.537598 0.914124
vt 0.537598 0.964124
vt 0.534473 0.964124
vt 0.534473 0.914124
vt 0.531348 0.964124
vt 0.531348 0.914124
vt 0.528223 0.964124
vt 0.528223 0.914124
vt 0.525098 0.964124
vt 0.525098 0.914124
vt 0.521973 0.964124
vt 0.521973 0.914124
vt 0.518848 0.964124
vt 0.518848 0.914124
vt 0.515723 0.964124
vt 0.515723 0.914124
vt 0.512598 0.964124
vt 0.512598 0.914124
vt 0.509473 0.964124
vt 0.509473 0.914124
vt 0.506348 0.964124
vt 0.506348 0.914124
vt 0.503223 0.964124
vt 0.503223 0.914124
vt 0.500098 0.964124
vt 0.500098 0.914124
vt 0.496973 0.964124
vt 0.496973 0.914124
vt 0.493848 0.964124
vt 0.493848 0.914124
vt 0.490723 0.964124
vt 0.490723 0.914124
vt 0.487598 0.964124
vt 0.487598 0.914124
vt 0.484473 0.964124
vt 0.484473 0.914124
vt 0.481348 0.964124
vt 0.481348 0.914124
vt 0.478223 0.964124
vt 0.478223 0.914124
vt 0.475098 0.964124
vt 0.475098 0.914124
vt 0.471973 0.964124
vt 0.471973 0.914124
vt 0.468848 0.964124
vt 0.468848 0.914124
vt 0.465723 0.964124
vt 0.465723 0.914124
vt 0.462598 0.964124
vt 0.462598 0.914124
vt 0.459473 0.964124
vt 0.459473 0.914124
vt 0.456348 0.964124
vt 0.456348 0.914124
vt 0.453223 0.964124
vt 0.453223 0.914124
vt 0.450098 0.964124
vt 0.450098 0.914124
vt 0.446973 0.964124
vt 0.446973 0.914124
vt 0.443848 0.964124
vt 0.443848 0.914124
vt 0.157757 0.954637
vt 0.153888 0.955018
vt 0.150019 0.954637
vt 0.146299 0.953508
vt 0.142870 0.951676
vt 0.139865 0.949209
vt 0.137399 0.946204
vt 0.135566 0.942776
vt 0.134438 0.939056
vt 0.134057 0.935187
vt 0.134438 0.931318
vt 0.135566 0.927598
vt 0.137399 0.924169
vt 0.139865 0.921164
vt 0.142870 0.918698
vt 0.146299 0.916865
vt 0.150019 0.915737
vt 0.153888 0.915356
vt 0.157757 0.915737
vt 0.161477 0.916865
vt 0.164905 0.918698
vt 0.167910 0.921164
vt 0.170377 0.924169
vt 0.172209 0.927598
vt 0.173338 0.931318
vt 0.173719 0.935187
vt 0.173338 0.939056
vt 0.172209 0.942776
vt 0.170377 0.946204
vt 0.167910 0.949209
vt 0.164905 0.951676
vt 0.161477 0.953508
vt 0.440723 0.964124
vt 0.440723 0.914124
vt 0.437598 0.964124
vt 0.437598 0.914124
vt 0.784104 0.962287
vt 0.788787 0.961826
vt 0.793289 0.960460
vt 0.797438 0.958242
vt 0.801075 0.955258
vt 0.804060 0.951621
vt 0.806277 0.947471
vt 0.807643 0.942969
vt 0.808104 0.938287
vt 0.807643 0.933605
vt 0.806277 0.929103
vt 0.804060 0.924953
vt 0.801075 0.921317
vt 0.797438 0.918332
vt 0.793289 0.916114
vt 0.788787 0.914748
vt 0.784104 0.914287
vt 0.779422 0.914748
vt 0.774920 0.916114
vt 0.770771 0.918332
vt 0.767134 0.921317
vt 0.764149 0.924953
vt 0.761931 0.929103
vt 0.760566 0.933605
vt 0.760104 0.938287
vt 0.760566 0.942969
vt 0.761931 0.947472
vt 0.764149 0.951621
vt 0.767134 0.955258
vt 0.770771 0.958242
vt 0.774920 0.960460
vt 0.779422 0.961826
vn 0.0000 -0.0980 -0.9952
vn 0.0000 -0.2903 -0.9569
vn 0.0000 -0.4714 -0.8819
vn 0.0000 -0.6344 -0.7730
vn 0.0000 -0.7730 -0.6344
vn 0.0000 -0.8819 -0.4714
vn 0.0000 -0.9569 -0.2903
vn 0.0000 -0.9952 -0.0980
vn 0.0000 -0.9952 0.0980
vn 0.0000 -0.9569 0.2903
vn 0.0000 -0.8819 0.4714
vn 0.0000 -0.7730 0.6344
vn 0.0000 -0.6344 0.7730
vn 0.0000 -0.4714 0.8819
vn 0.0000 -0.2903 0.9569
vn 0.0000 -0.0980 0.9952
vn 0.0000 0.0980 0.9952
vn 0.0000 0.2903 0.9569
vn -0.0000 0.4714 0.8819
vn -0.0000 0.6344 0.7730
vn -0.0000 0.7730 0.6344
vn 0.0000 0.8819 0.4714
vn -0.0000 0.9569 0.2903
vn -0.0000 0.9952 0.0980
vn -0.0000 0.9952 -0.0980
vn -0.0000 0.9569 -0.2903
vn 0.0000 0.8819 -0.4714
vn -0.0000 0.7730 -0.6344
vn -0.0000 0.6344 -0.7730
vn -0.0000 0.4714 -0.8819
vn 1.0000 0.0000 0.0000
vn -0.0000 0.2903 -0.9569
vn 0.0000 0.0980 -0.9952
vn -1.0000 0.0000 0.0000
usemtl Material.002
s off
f 1/1/1 2/2/1 4/3/1 3/4/1
f 3/4/2 4/3/2 6/5/2 5/6/2
f 5/6/3 6/5/3 8/7/3 7/8/3
f 7/8/4 8/7/4 10/9/4 9/10/4
f 9/10/5 10/9/5 12/11/5 11/12/5
f 11/12/6 12/11/6 14/13/6 13/14/6
f 13/14/7 14/13/7 16/15/7 15/16/7
f 15/16/8 16/15/8 18/17/8 17/18/8
f 17/18/9 18/17/9 20/19/9 19/20/9
f 19/20/10 20/19/10 22/21/10 21/22/10
f 21/22/11 22/21/11 24/23/11 23/24/11
f 23/24/12 24/23/12 26/25/12 25/26/12
f 25/26/13 26/25/13 28/27/13 27/28/13
f 27/28/14 28/27/14 30/29/14 29/30/14
f 29/30/15 30/29/15 32/31/15 31/32/15
f 31/32/16 32/31/16 34/33/16 33/34/16
f 33/34/17 34/33/17 36/35/17 35/36/17
f 35/36/18 36/35/18 38/37/18 37/38/18
f 37/38/19 38/37/19 40/39/19 39/40/19
f 39/40/20 40/39/20 42/41/20 41/42/20
f 41/42/21 42/41/21 44/43/21 43/44/21
f 43/44/22 44/43/22 46/45/22 45/46/22
f 45/46/23 46/45/23 48/47/23 47/48/23
f 47/48/24 48/47/24 50/49/24 49/50/24
f 49/50/25 50/49/25 52/51/25 51/52/25
f 51/52/26 52/51/26 54/53/26 53/54/26
f 53/54/27 54/53/27 56/55/27 55/56/27
f 55/56/28 56/55/28 58/57/28 57/58/28
f 57/58/29 58/57/29 60/59/29 59/60/29
f 59/60/30 60/59/30 62/61/30 61/62/30
f 4/63/31 2/64/31 64/65/31 62/66/31 60/67/31 58/68/31 56/69/31 54/70/31 52/71/31 50/72/31 48/73/31 46/74/31 44/75/31 42/76/31 40/77/31 38/78/31 36/79/31 34/80/31 32/81/31 30/82/31 28/83/31 26/84/31 24/85/31 22/86/31 20/87/31 18/88/31 16/89/31 14/90/31 12/91/31 10/92/31 8/93/31 6/94/31
f 61/62/32 62/61/32 64/95/32 63/96/32
f 63/96/33 64/95/33 2/97/33 1/98/33
f 1/99/34 3/100/34 5/101/34 7/102/34 9/103/34 11/104/34 13/105/34 15/106/34 17/107/34 19/108/34 21/109/34 23/110/34 25/111/34 27/112/34 29/113/34 31/114/34 33/115/34 35/116/34 37/117/34 39/118/34 41/119/34 43/120/34 45/121/34 47/122/34 49/123/34 51/124/34 53/125/34 55/126/34 57/127/34 59/128/34 61/129/34 63/130/34
