# Blender v2.90.0 OBJ File: '3DLever.blend'
# www.blender.org
mtllib LeverNeck1.1.mtl
o LeverNeck_Cylinder.001
v 0.000000 0.101150 -0.113970
v 0.000000 2.061522 -0.113970
v 0.022235 0.101150 -0.111780
v 0.022235 2.061522 -0.111780
v 0.043615 0.101150 -0.105295
v 0.043615 2.061522 -0.105295
v 0.063319 0.101150 -0.094763
v 0.063319 2.061522 -0.094763
v 0.080589 0.101150 -0.080589
v 0.080589 2.061522 -0.080589
v 0.094763 0.101150 -0.063319
v 0.094763 2.061522 -0.063319
v 0.105295 0.101150 -0.043615
v 0.105295 2.061522 -0.043615
v 0.111780 0.101150 -0.022235
v 0.111780 2.061522 -0.022235
v 0.113970 0.101150 -0.000000
v 0.113970 2.061522 -0.000000
v 0.111780 0.101150 0.022234
v 0.111780 2.061522 0.022234
v 0.105295 0.101150 0.043615
v 0.105295 2.061522 0.043615
v 0.094763 0.101150 0.063319
v 0.094763 2.061522 0.063319
v 0.080589 0.101150 0.080589
v 0.080589 2.061522 0.080589
v 0.063319 0.101150 0.094763
v 0.063319 2.061522 0.094763
v 0.043615 0.101150 0.105295
v 0.043615 2.061522 0.105295
v 0.022234 0.101150 0.111780
v 0.022234 2.061522 0.111780
v -0.000000 0.101150 0.113970
v -0.000000 2.061522 0.113970
v -0.022235 0.101150 0.111780
v -0.022235 2.061522 0.111780
v -0.043615 0.101150 0.105295
v -0.043615 2.061522 0.105295
v -0.063319 0.101150 0.094763
v -0.063319 2.061522 0.094763
v -0.080589 0.101150 0.080589
v -0.080589 2.061522 0.080589
v -0.094763 0.101150 0.063318
v -0.094763 2.061522 0.063318
v -0.105295 0.101150 0.043614
v -0.105295 2.061522 0.043614
v -0.111780 0.101150 0.022234
v -0.111780 2.061522 0.022234
v -0.113970 0.101150 -0.000000
v -0.113970 2.061522 -0.000000
v -0.111780 0.101150 -0.022235
v -0.111780 2.061522 -0.022235
v -0.105295 0.101150 -0.043615
v -0.105295 2.061522 -0.043615
v -0.094763 0.101150 -0.063319
v -0.094763 2.061522 -0.063319
v -0.080589 0.101150 -0.080589
v -0.080589 2.061522 -0.080589
v -0.063318 0.101150 -0.094763
v -0.063318 2.061522 -0.094763
v -0.043614 0.101150 -0.105295
v -0.043614 2.061522 -0.105295
v -0.022234 0.101150 -0.111780
v -0.022234 2.061522 -0.111780
vt 0.567052 0.921875
vt 0.567052 0.971875
vt 0.563927 0.971875
vt 0.563927 0.921875
vt 0.560802 0.971875
vt 0.560802 0.921875
vt 0.557677 0.971875
vt 0.557677 0.921875
vt 0.554552 0.971875
vt 0.554552 0.921875
vt 0.551427 0.971875
vt 0.551427 0.921875
vt 0.548302 0.971875
vt 0.548302 0.921875
vt 0.545177 0.971875
vt 0.545177 0.921875
vt 0.542052 0.971875
vt 0.542052 0.921875
vt 0.538927 0.971875
vt 0.538927 0.921875
vt 0.535802 0.971875
vt 0.535802 0.921875
vt 0.532677 0.971875
vt 0.532677 0.921875
vt 0.529552 0.971875
vt 0.529552 0.921875
vt 0.526427 0.971875
vt 0.526427 0.921875
vt 0.523302 0.971875
vt 0.523302 0.921875
vt 0.520177 0.971875
vt 0.520177 0.921875
vt 0.517052 0.971875
vt 0.517052 0.921875
vt 0.513927 0.971875
vt 0.513927 0.921875
vt 0.510802 0.971875
vt 0.510802 0.921875
vt 0.507677 0.971875
vt 0.507677 0.921875
vt 0.504552 0.971875
vt 0.504552 0.921875
vt 0.501427 0.971875
vt 0.501427 0.921875
vt 0.498302 0.971875
vt 0.498302 0.921875
vt 0.495177 0.971875
vt 0.495177 0.921875
vt 0.492052 0.971875
vt 0.492052 0.921875
vt 0.488927 0.971875
vt 0.488927 0.921875
vt 0.485802 0.971875
vt 0.485802 0.921875
vt 0.482677 0.971875
vt 0.482677 0.921875
vt 0.479552 0.971875
vt 0.479552 0.921875
vt 0.476427 0.971875
vt 0.476427 0.921875
vt 0.473302 0.971875
vt 0.473302 0.921875
vt 0.431904 0.113851
vt 0.425946 0.114438
vt 0.419988 0.113851
vt 0.414259 0.112113
vt 0.408979 0.109291
vt 0.404351 0.105493
vt 0.400552 0.100865
vt 0.397730 0.095585
vt 0.395992 0.089855
vt 0.395405 0.083897
vt 0.395992 0.077939
vt 0.397730 0.072210
vt 0.400552 0.066930
vt 0.404351 0.062302
vt 0.408979 0.058504
vt 0.414259 0.055681
vt 0.419988 0.053943
vt 0.425946 0.053357
vt 0.431904 0.053943
vt 0.437633 0.055681
vt 0.442913 0.058504
vt 0.447541 0.062302
vt 0.451340 0.066930
vt 0.454162 0.072210
vt 0.455900 0.077939
vt 0.456487 0.083897
vt 0.455900 0.089855
vt 0.454162 0.095585
vt 0.451340 0.100865
vt 0.447541 0.105493
vt 0.442913 0.109291
vt 0.437633 0.112113
vt 0.470177 0.971875
vt 0.470177 0.921875
vt 0.467052 0.971875
vt 0.467052 0.921875
vt 0.721701 0.111434
vt 0.727793 0.110834
vt 0.733651 0.109057
vt 0.739050 0.106171
vt 0.743782 0.102287
vt 0.747666 0.097555
vt 0.750552 0.092156
vt 0.752329 0.086298
vt 0.752929 0.080206
vt 0.752329 0.074114
vt 0.750552 0.068256
vt 0.747666 0.062857
vt 0.743782 0.058125
vt 0.739050 0.054241
vt 0.733651 0.051355
vt 0.727793 0.049578
vt 0.721701 0.048978
vt 0.715609 0.049578
vt 0.709751 0.051355
vt 0.704352 0.054241
vt 0.699620 0.058125
vt 0.695736 0.062857
vt 0.692850 0.068256
vt 0.691073 0.074114
vt 0.690473 0.080206
vt 0.691073 0.086298
vt 0.692850 0.092156
vt 0.695736 0.097555
vt 0.699620 0.102287
vt 0.704352 0.106171
vt 0.709751 0.109057
vt 0.715609 0.110834
vn 0.0980 0.0000 -0.9952
vn 0.2903 0.0000 -0.9569
vn 0.4714 0.0000 -0.8819
vn 0.6344 0.0000 -0.7730
vn 0.7730 0.0000 -0.6344
vn 0.8819 0.0000 -0.4714
vn 0.9569 0.0000 -0.2903
vn 0.9952 0.0000 -0.0980
vn 0.9952 0.0000 0.0980
vn 0.9569 0.0000 0.2903
vn 0.8819 0.0000 0.4714
vn 0.7730 0.0000 0.6344
vn 0.6344 0.0000 0.7730
vn 0.4714 0.0000 0.8819
vn 0.2903 0.0000 0.9569
vn 0.0980 0.0000 0.9952
vn -0.0980 0.0000 0.9952
vn -0.2903 0.0000 0.9569
vn -0.4714 0.0000 0.8819
vn -0.6344 0.0000 0.7730
vn -0.7730 0.0000 0.6344
vn -0.8819 0.0000 0.4714
vn -0.9569 0.0000 0.2903
vn -0.9952 0.0000 0.0980
vn -0.9952 0.0000 -0.0980
vn -0.9569 0.0000 -0.2903
vn -0.8819 0.0000 -0.4714
vn -0.7730 0.0000 -0.6344
vn -0.6344 0.0000 -0.7730
vn -0.4714 0.0000 -0.8819
vn 0.0000 1.0000 0.0000
vn -0.2903 0.0000 -0.9569
vn -0.0980 0.0000 -0.9952
vn 0.0000 -1.0000 -0.0000
usemtl Material.001
s off
f 1/1/1 2/2/1 4/3/1 3/4/1
f 3/4/2 4/3/2 6/5/2 5/6/2
f 5/6/3 6/5/3 8/7/3 7/8/3
f 7/8/4 8/7/4 10/9/4 9/10/4
f 9/10/5 10/9/5 12/11/5 11/12/5
f 11/12/6 12/11/6 14/13/6 13/14/6
f 13/14/7 14/13/7 16/15/7 15/16/7
f 15/16/8 16/15/8 18/17/8 17/18/8
f 17/18/9 18/17/9 20/19/9 19/20/9
f 19/20/10 20/19/10 22/21/10 21/22/10
f 21/22/11 22/21/11 24/23/11 23/24/11
f 23/24/12 24/23/12 26/25/12 25/26/12
f 25/26/13 26/25/13 28/27/13 27/28/13
f 27/28/14 28/27/14 30/29/14 29/30/14
f 29/30/15 30/29/15 32/31/15 31/32/15
f 31/32/16 32/31/16 34/33/16 33/34/16
f 33/34/17 34/33/17 36/35/17 35/36/17
f 35/36/18 36/35/18 38/37/18 37/38/18
f 37/38/19 38/37/19 40/39/19 39/40/19
f 39/40/20 40/39/20 42/41/20 41/42/20
f 41/42/21 42/41/21 44/43/21 43/44/21
f 43/44/22 44/43/22 46/45/22 45/46/22
f 45/46/23 46/45/23 48/47/23 47/48/23
f 47/48/24 48/47/24 50/49/24 49/50/24
f 49/50/25 50/49/25 52/51/25 51/52/25
f 51/52/26 52/51/26 54/53/26 53/54/26
f 53/54/27 54/53/27 56/55/27 55/56/27
f 55/56/28 56/55/28 58/57/28 57/58/28
f 57/58/29 58/57/29 60/59/29 59/60/29
f 59/60/30 60/59/30 62/61/30 61/62/30
f 4/63/31 2/64/31 64/65/31 62/66/31 60/67/31 58/68/31 56/69/31 54/70/31 52/71/31 50/72/31 48/73/31 46/74/31 44/75/31 42/76/31 40/77/31 38/78/31 36/79/31 34/80/31 32/81/31 30/82/31 28/83/31 26/84/31 24/85/31 22/86/31 20/87/31 18/88/31 16/89/31 14/90/31 12/91/31 10/92/31 8/93/31 6/94/31
f 61/62/32 62/61/32 64/95/32 63/96/32
f 63/96/33 64/95/33 2/97/33 1/98/33
f 1/99/34 3/100/34 5/101/34 7/102/34 9/103/34 11/104/34 13/105/34 15/106/34 17/107/34 19/108/34 21/109/34 23/110/34 25/111/34 27/112/34 29/113/34 31/114/34 33/115/34 35/116/34 37/117/34 39/118/34 41/119/34 43/120/34 45/121/34 47/122/34 49/123/34 51/124/34 53/125/34 55/126/34 57/127/34 59/128/34 61/129/34 63/130/34
